<svg width="125" height="25" viewBox="0 0 125 25" fill="none" xmlns="http://www.w3.org/2000/svg">
<path d="M5.56109 11.204C6.6401 11.1204 7.55312 10.786 7.55312 9.94984C7.55312 8.69565 6.3911 8.69565 5.56109 8.61204C3.98406 8.69565 3.81806 9.28094 3.48606 10.3679H0.415006C0.66401 6.68896 3.32005 6.10368 5.56109 6.10368C7.96813 6.10368 10.7072 6.77258 10.7072 9.53178V16.8896C10.7072 17.5585 10.8732 17.8094 11.3712 18.1438V18.6455H7.88513C7.71913 18.2274 7.71913 17.7258 7.63612 17.2241C6.6401 18.311 5.31208 19.0635 3.81806 19.0635C1.57702 19.0635 0 17.8094 0 15.3846C0 11.7893 2.98805 11.4548 5.56109 11.204ZM7.63612 12.709C6.3081 13.6288 3.23705 13.0435 3.23705 15.2174C3.32005 16.3043 3.81806 16.7224 4.81407 16.7224C7.13811 16.3043 7.71913 15.6354 7.63612 12.709ZM30.8765 10.9532V18.7291H27.6394V10.8696C27.6394 9.699 26.8094 8.86288 25.8134 8.86288C24.1534 9.11371 23.9044 9.94984 23.7384 11.3712V18.7291H20.5013V11.3712C20.5843 9.94984 20.1693 8.86288 18.7583 8.86288C16.6833 8.94649 16.6833 9.94984 16.6833 11.2876V18.7291H13.4462V6.43813H16.5173V8.19398C17.2643 6.85619 18.2603 6.10368 20.0033 6.10368C21.7463 6.10368 22.6594 6.77258 23.3234 8.19398C24.1534 6.68897 25.5644 6.10368 27.0584 6.10368C30.2125 6.35452 31.0425 8.52843 30.8765 10.9532ZM36.0226 13.3779C36.0226 15.301 37.1016 16.4716 38.7616 16.4716C39.9236 16.388 40.5877 15.8863 40.9197 15.0502H44.1567C43.7417 17.2241 41.6667 19.0635 38.6786 19.0635C37.5996 19.0635 32.7855 18.7291 32.7855 12.6254C32.7855 7.85953 35.6076 6.10368 38.5126 6.10368C41.5837 6.10368 44.3227 7.6087 44.2397 13.3779H36.0226ZM36.1056 11.2876H41.0857C41.0857 9.86622 40.0066 8.69565 38.5956 8.69565C36.8526 8.69565 36.2716 9.94984 36.1886 11.2876H36.1056ZM53.4529 6.10368V9.36455C51.7098 9.28094 49.5518 9.11371 49.5518 12.7926V18.6455H46.3977V6.35452H49.3858V8.52843C50.5478 6.43813 51.7098 6.02007 53.3699 6.10368H53.4529ZM55.3619 6.35452H58.5989V18.6455H55.3619V6.35452ZM68.9741 10.786C68.7251 9.36455 67.8951 8.77927 66.8991 8.77927C64.658 8.77927 64.409 10.9532 64.409 12.709C64.409 15.0502 65.156 16.388 66.8161 16.388C68.3101 16.3043 68.6421 15.8027 68.9741 14.214H72.2112C71.7962 17.1405 69.8871 19.0635 66.7331 19.0635C62.832 18.9799 61.089 16.6388 61.089 12.709C61.089 8.27759 63.33 6.10368 66.8161 6.02007C70.6341 6.02007 72.0452 7.94315 72.2942 10.7023L68.9741 10.786ZM79.1833 11.204C80.1793 11.1204 81.0923 10.786 81.0923 9.94984C81.0923 8.69565 79.9303 8.69565 79.1003 8.61204C77.5232 8.69565 77.3572 9.28094 77.1082 10.3679H73.9542C74.2032 7.35786 76.0292 6.10368 79.2663 6.10368C81.6733 6.10368 84.3294 6.9398 84.3294 9.61538V16.8896C84.3294 17.5585 84.4953 17.8094 84.9934 18.1438V18.6455H81.5073C81.3413 18.1438 81.3413 17.6421 81.2583 17.2241C80.1793 18.311 79.0173 19.0635 77.4402 19.0635C75.1162 18.9799 73.6222 17.8094 73.6222 15.3846C73.7052 12.6254 75.3652 11.5385 79.1833 11.204ZM81.0923 12.709C80.4283 13.1271 79.5983 13.2943 78.9343 13.3779C77.6062 13.4615 76.7762 13.8796 76.7762 15.1338C76.8592 16.3043 77.4402 16.7224 78.3533 16.7224C80.6773 16.3043 81.3413 15.3846 81.0923 12.709ZM98.1076 10.4515V18.7291H94.8705V11.204C94.9535 9.78261 94.4555 8.77927 92.8785 8.77927C90.8865 8.77927 90.3884 10.4515 90.3884 12.0401V18.7291H87.1514V6.43813H90.3054V8.19398C91.0525 6.85619 92.2145 6.10368 93.9575 6.10368C96.2815 6.18729 98.1076 7.02341 98.1076 10.4515ZM105.744 8.61204C104.416 8.69565 103.835 9.11371 103.669 10.3679H100.598C100.847 7.35786 102.673 6.10368 105.827 6.10368C107.736 6.10368 110.973 6.43813 110.973 9.94984V17.1405C111.056 17.3077 110.973 17.8094 111.554 18.2274V18.7291H108.151C107.902 18.2274 107.902 17.7258 107.819 17.2241C106.823 18.3946 105.661 19.0635 104.084 19.1472C101.926 19.1472 100.266 17.8094 100.266 15.4682C100.349 12.5418 102.009 11.8729 104.748 11.3712C106.076 11.2876 107.819 11.1204 107.819 10.0334C107.819 8.69566 106.74 8.69565 105.744 8.61204ZM105.578 13.3779C104.665 13.4615 103.42 13.796 103.42 15.1338C103.42 16.4716 104.333 16.6388 104.997 16.7224C107.155 16.5552 107.819 15.5518 107.819 12.709C107.072 13.1271 106.242 13.2943 105.578 13.3779ZM116.202 14.7993C116.368 16.5552 117.696 16.6388 118.775 16.6388C119.854 16.6388 120.767 16.3044 120.767 15.4682C120.85 14.2977 118.858 14.2977 117.032 13.7124C115.289 13.2943 113.214 12.6254 113.297 10.2007C113.463 7.02341 116.036 6.10368 118.36 6.10368C121.846 6.10368 123.506 7.52508 123.672 10.1171H120.518C120.352 8.94649 119.605 8.52843 118.36 8.52843C117.032 8.52843 116.368 8.94649 116.368 9.53178C116.368 10.5351 117.364 10.5351 120.186 11.2876C122.51 11.8729 123.921 12.9599 124.004 14.9666C123.838 18.1438 121.597 19.1472 118.526 19.1472C115.04 19.1472 113.048 17.6421 112.965 14.7993H116.202ZM0.083001 0V3.01003H125V0H0.083001ZM0.083001 21.99V25H125V21.99H0.083001Z" fill="white"/>
</svg>
