<svg width="25" height="20" viewBox="0 0 25 20" fill="none" xmlns="http://www.w3.org/2000/svg">
<path d="M5.9375 0H0.3125C0.140625 0 0 0.140625 0 0.3125V6.25C0 6.42188 0.140625 6.5625 0.3125 6.5625H0.9375C1.10938 6.5625 1.25 6.42188 1.25 6.25V1.25H5.9375C6.10938 1.25 6.25 1.10938 6.25 0.9375V0.3125C6.25 0.140625 6.10938 0 5.9375 0ZM5.9375 18.75H1.25V13.75C1.25 13.5781 1.10938 13.4375 0.9375 13.4375H0.3125C0.140625 13.4375 0 13.5781 0 13.75V19.6875C0 19.8594 0.140625 20 0.3125 20H5.9375C6.10938 20 6.25 19.8594 6.25 19.6875V19.0625C6.25 18.8906 6.10938 18.75 5.9375 18.75ZM24.6875 0H19.0625C18.8906 0 18.75 0.140625 18.75 0.3125V0.9375C18.75 1.10938 18.8906 1.25 19.0625 1.25H23.75V6.25C23.75 6.42188 23.8906 6.5625 24.0625 6.5625H24.6875C24.8594 6.5625 25 6.42188 25 6.25V0.3125C25 0.140625 24.8594 0 24.6875 0ZM24.6875 13.4375H24.0625C23.8906 13.4375 23.75 13.5781 23.75 13.75V18.75H19.0625C18.8906 18.75 18.75 18.8906 18.75 19.0625V19.6875C18.75 19.8594 18.8906 20 19.0625 20H24.6875C24.8594 20 25 19.8594 25 19.6875V13.75C25 13.5781 24.8594 13.4375 24.6875 13.4375ZM5.9375 3.75H4.0625C3.89062 3.75 3.75 3.89062 3.75 4.0625V15.9375C3.75 16.1094 3.89062 16.25 4.0625 16.25H5.9375C6.10938 16.25 6.25 16.1094 6.25 15.9375V4.0625C6.25 3.89062 6.10938 3.75 5.9375 3.75ZM19.0625 16.25H20.9375C21.1094 16.25 21.25 16.1094 21.25 15.9375V4.0625C21.25 3.89062 21.1094 3.75 20.9375 3.75H19.0625C18.8906 3.75 18.75 3.89062 18.75 4.0625V15.9375C18.75 16.1094 18.8906 16.25 19.0625 16.25ZM15.9375 3.75H14.0625C13.8906 3.75 13.75 3.89062 13.75 4.0625V15.9375C13.75 16.1094 13.8906 16.25 14.0625 16.25H15.9375C16.1094 16.25 16.25 16.1094 16.25 15.9375V4.0625C16.25 3.89062 16.1094 3.75 15.9375 3.75ZM8.4375 3.75H7.8125C7.64062 3.75 7.5 3.89062 7.5 4.0625V15.9375C7.5 16.1094 7.64062 16.25 7.8125 16.25H8.4375C8.60938 16.25 8.75 16.1094 8.75 15.9375V4.0625C8.75 3.89062 8.60938 3.75 8.4375 3.75ZM10.9375 3.75H10.3125C10.1406 3.75 10 3.89062 10 4.0625V15.9375C10 16.1094 10.1406 16.25 10.3125 16.25H10.9375C11.1094 16.25 11.25 16.1094 11.25 15.9375V4.0625C11.25 3.89062 11.1094 3.75 10.9375 3.75Z" fill="white"/>
</svg>
