<svg width="14" height="18" viewBox="0 0 14 18" fill="none" xmlns="http://www.w3.org/2000/svg">
<path d="M9.84375 8.4375H5.90625C5.75156 8.4375 5.625 8.56406 5.625 8.71875V9.28125C5.625 9.43594 5.75156 9.5625 5.90625 9.5625H9.84375C9.99844 9.5625 10.125 9.43594 10.125 9.28125V8.71875C10.125 8.56406 9.99844 8.4375 9.84375 8.4375ZM9.84375 11.8125H5.90625C5.75156 11.8125 5.625 11.9391 5.625 12.0938V12.6562C5.625 12.8109 5.75156 12.9375 5.90625 12.9375H9.84375C9.99844 12.9375 10.125 12.8109 10.125 12.6562V12.0938C10.125 11.9391 9.99844 11.8125 9.84375 11.8125ZM3.9375 8.15625C3.46992 8.15625 3.09375 8.53242 3.09375 9C3.09375 9.46758 3.46992 9.84375 3.9375 9.84375C4.40508 9.84375 4.78125 9.46758 4.78125 9C4.78125 8.53242 4.40508 8.15625 3.9375 8.15625ZM3.9375 11.5312C3.46992 11.5312 3.09375 11.9074 3.09375 12.375C3.09375 12.8426 3.46992 13.2188 3.9375 13.2188C4.40508 13.2188 4.78125 12.8426 4.78125 12.375C4.78125 11.9074 4.40508 11.5312 3.9375 11.5312ZM11.8125 2.25H8.69766C8.71172 2.15859 8.71875 2.06367 8.71875 1.96875C8.71875 0.882422 7.83633 0 6.75 0C5.66367 0 4.78125 0.882422 4.78125 1.96875C4.78125 2.06367 4.78828 2.15859 4.80234 2.25H1.6875C0.755859 2.25 0 3.00586 0 3.9375V16.3125C0 17.2441 0.755859 18 1.6875 18H11.8125C12.7441 18 13.5 17.2441 13.5 16.3125V3.9375C13.5 3.00586 12.7441 2.25 11.8125 2.25ZM6.75 1.125C7.21758 1.125 7.59375 1.50117 7.59375 1.96875C7.59375 2.43633 7.21758 2.8125 6.75 2.8125C6.28242 2.8125 5.90625 2.43633 5.90625 1.96875C5.90625 1.50117 6.28242 1.125 6.75 1.125ZM12.375 16.3125C12.375 16.6219 12.1219 16.875 11.8125 16.875H1.6875C1.37812 16.875 1.125 16.6219 1.125 16.3125V3.9375C1.125 3.62812 1.37812 3.375 1.6875 3.375H3.375V4.07812C3.375 4.31016 3.56484 4.5 3.79688 4.5H9.70312C9.93516 4.5 10.125 4.31016 10.125 4.07812V3.375H11.8125C12.1219 3.375 12.375 3.62812 12.375 3.9375V16.3125Z" fill="white"/>
</svg>
