<svg width="18" height="16" viewBox="0 0 18 16" fill="none" xmlns="http://www.w3.org/2000/svg">
<path d="M16.2527 1.20434C14.3367 -0.426908 11.4715 -0.156205 9.69258 1.67895L9 2.39614L8.30742 1.68247C6.87305 0.198873 3.97969 -0.694096 1.74727 1.20434C-0.460547 3.08872 -0.576562 6.47075 1.39922 8.50981L8.20195 15.534C8.41992 15.759 8.7082 15.875 8.99649 15.875C9.28477 15.875 9.57305 15.7625 9.79102 15.534L16.5938 8.50981C18.5766 6.47075 18.4605 3.08872 16.2527 1.20434V1.20434ZM15.7922 7.72934L9.01406 14.7536L2.20781 7.72934C0.857813 6.33715 0.576563 3.68286 2.47852 2.06215C4.40508 0.416842 6.66914 1.60864 7.49883 2.46645L9 4.01684L10.5012 2.46645C11.3168 1.6227 13.602 0.427388 15.5215 2.06215C17.4199 3.67934 17.1422 6.33364 15.7922 7.72934Z" fill="white"/>
</svg>
