<svg width="326" height="224" viewBox="0 0 326 224" fill="none" xmlns="http://www.w3.org/2000/svg">
<g clip-path="url(#clip0)">
<path opacity="0.1" d="M122.881 23.3397H101.737C100.87 23.3397 100.168 24.0413 100.168 24.9068V30.8659C100.168 31.7314 100.87 32.433 101.737 32.433H122.881C123.748 32.433 124.451 31.7314 124.451 30.8659V24.9068C124.451 24.0413 123.748 23.3397 122.881 23.3397Z" fill="#E60014"/>
<path opacity="0.1" d="M195.123 15.1556H173.979C173.112 15.1556 172.41 15.8572 172.41 16.7227V22.6819C172.41 23.5474 173.112 24.249 173.979 24.249H195.123C195.99 24.249 196.693 23.5474 196.693 22.6819V16.7227C196.693 15.8572 195.99 15.1556 195.123 15.1556Z" fill="#E60014"/>
<path opacity="0.1" d="M181.768 107.605H160.623C159.757 107.605 159.054 108.306 159.054 109.172V115.131C159.054 115.997 159.757 116.698 160.623 116.698H181.768C182.634 116.698 183.337 115.997 183.337 115.131V109.172C183.337 108.306 182.634 107.605 181.768 107.605Z" fill="#E60014"/>
<path opacity="0.1" d="M192.695 117.608H171.551C170.684 117.608 169.981 118.309 169.981 119.175V125.134C169.981 125.999 170.684 126.701 171.551 126.701H192.695C193.562 126.701 194.264 125.999 194.264 125.134V119.175C194.264 118.309 193.562 117.608 192.695 117.608Z" fill="#E60014"/>
<path opacity="0.1" d="M257.652 113.061H236.508C235.641 113.061 234.938 113.763 234.938 114.628V120.587C234.938 121.453 235.641 122.154 236.508 122.154H257.652C258.519 122.154 259.222 121.453 259.222 120.587V114.628C259.222 113.763 258.519 113.061 257.652 113.061Z" fill="#E60014"/>
<path opacity="0.1" d="M60.049 120.336H38.9045C38.0378 120.336 37.3352 121.037 37.3352 121.903V127.862C37.3352 128.727 38.0378 129.429 38.9045 129.429H60.049C60.9157 129.429 61.6183 128.727 61.6183 127.862V121.903C61.6183 121.037 60.9157 120.336 60.049 120.336Z" fill="#E60014"/>
<path opacity="0.1" d="M174.179 127.61H153.035C152.168 127.61 151.466 128.312 151.466 129.177V135.137C151.466 136.002 152.168 136.704 153.035 136.704H174.179C175.046 136.704 175.749 136.002 175.749 135.137V129.177C175.749 128.312 175.046 127.61 174.179 127.61Z" fill="#E60014"/>
<path d="M218.217 55.2301L207.089 22.9729L203.088 23.5791L199.507 24.0368C199.598 22.8244 199.755 18.4717 197.534 16.1892C197.318 15.4072 196.75 14.5191 195.658 13.5188C190.334 8.64476 189.226 18.6141 189.226 18.6141C189.226 18.6141 188.012 20.7177 186.339 23.6579L185.462 23.4912L185.213 25.6615C181.51 32.1996 176.589 41.0475 176.589 41.878C176.589 43.2087 175.925 44.9788 175.925 44.9788C175.925 44.9788 172.155 51.1805 170.822 54.2844C170.046 56.1155 168.911 57.7728 167.483 59.1584C167.483 59.1584 167.161 59.4039 166.633 59.7647C166.667 59.1779 166.769 58.5971 166.937 58.0339C167.423 56.4486 168.552 55.0907 168.852 53.4599C168.923 53.069 168.949 52.6715 168.931 52.2747C169.001 50.3621 168.069 48.4798 167.681 46.5671C167.228 44.3514 167.471 41.9113 166.287 39.9866C165.377 38.5165 163.762 37.6011 162.083 37.1798C160.541 36.7948 159.024 36.9312 157.47 36.7675C156.043 36.616 154.68 35.9855 153.253 35.7521C152.491 35.5866 151.702 35.5866 150.94 35.7521C148.527 36.4159 147.771 39.4531 145.908 41.1232C145.237 41.7295 144.414 42.1478 143.807 42.8116C142.924 43.7785 142.617 45.1274 142.663 46.4489C142.651 46.8919 142.678 47.3351 142.742 47.7735C142.973 49.3588 143.586 50.8592 143.956 52.4142C144.236 53.565 144.388 54.7432 144.408 55.9273C144.408 56.194 144.408 56.4607 144.384 56.7244C144.395 57.2583 144.253 57.7842 143.974 58.24C143.637 58.7038 143.082 58.9281 142.587 59.2251C140.97 57.9434 139.756 56.224 139.09 54.2723C139.09 54.2723 139.008 54.3753 138.869 54.5754V54.2723C138.869 54.2723 135.833 49.8226 135.372 46.1883L136.428 46.2974L138.857 12.1821L132.655 11.2727C132.482 9.51166 132.012 6.95643 130.764 5.09229C131.805 3.04325 132.33 0.269769 127.765 -0.00606285C122.423 -0.330393 122.751 3.82528 123.318 6.09862C123.061 7.33912 122.959 8.60675 123.015 9.87236L117.551 9.07821L117.521 9.52076H116.222L112.245 44.3241L115.633 44.1544L128.048 45.4456C129.04 54.4572 130.6 65.5935 132.452 68.2185C132.514 68.3071 132.581 68.3912 132.655 68.47V84.4168C132.655 84.4168 132.434 105.028 128.661 108.341C130.975 107.519 133.423 107.136 135.879 107.211C135.836 107.347 135.794 107.493 135.751 107.647C135.199 109.682 134.814 111.758 134.601 113.855C134.548 114.318 134.501 114.801 134.458 115.304C134.111 119.921 134.175 124.56 134.65 129.165C136.204 145.558 138.644 157.3 138.644 157.3L139.324 166.83C139.324 166.83 138.659 183.001 140.432 188.318C141.1 188.932 141.868 189.429 142.702 189.788C142.718 189.939 142.736 190.091 142.751 190.251C142.766 190.412 142.79 190.661 142.812 190.873C142.016 191.234 140.532 192.664 140.21 198.284C140.21 198.284 140.653 202.494 139.546 204.486C138.438 206.477 139.102 212.239 142.429 212.903C144.555 213.294 146.735 213.294 148.861 212.903C148.861 212.903 150.415 212.903 149.304 207.365L149.11 205.947C149.086 203.203 149.201 200.266 149.748 199.39C150.855 197.617 149.304 195.847 149.304 195.847C149.304 195.847 149.195 195.908 149.016 195.989C148.731 194.459 148.357 191.973 148.491 190.076C148.491 189.915 148.518 189.773 148.536 189.606C149.213 189.253 149.844 188.818 150.415 188.312V167.273C150.415 167.273 150.194 134.93 152.634 134.264C152.634 134.264 153.742 146.003 153.299 151.765C152.856 157.527 153.964 163.729 153.964 163.729L154.407 187.211C154.407 187.211 154.832 187.414 155.518 187.654L155.472 188.081C155.202 190.691 154.768 194.631 154.373 197.044C154.107 197.15 153.87 197.318 153.683 197.534C153.495 197.75 153.362 198.009 153.296 198.287C152.631 200.503 153.074 206.041 151.742 207.593C150.956 208.502 150.015 210.354 150.476 211.663C150.188 212.812 150.315 214.607 153.739 214.904C158.841 215.346 161.06 212.688 161.06 212.688C161.06 212.688 161.725 211.581 161.06 209.587C160.396 207.593 161.282 204.049 161.282 204.049C161.282 204.049 161.759 201.042 160.978 200.648C160.912 200.291 160.851 200.063 160.851 200.063C160.861 199.382 160.611 198.723 160.15 198.22C160.132 195.901 160.226 191.612 161.042 188.787C161.091 188.627 161.139 188.484 161.191 188.318C161.848 188.204 162.482 187.982 163.067 187.66C163.067 187.66 162.845 182.565 164.399 179.021C165.953 175.478 165.064 161.298 165.064 161.298C165.064 161.298 164.399 157.573 165.337 154.554C166.412 151.208 167.218 147.782 167.747 144.309L169.056 135.158C169.056 135.158 172.501 124.018 167.963 112.585C167.778 112.112 167.574 111.639 167.356 111.166C166.979 110.345 166.56 109.521 166.093 108.702C166.02 108.575 165.941 108.444 165.865 108.317C166.342 108.199 166.612 108.129 166.612 108.129C166.612 108.129 160.623 94.1861 164.393 87.0842C164.393 87.0842 166.518 84.9624 166.822 82.6314C167.198 79.5488 167.608 76.4692 168.282 73.438L168.4 72.9046C168.4 72.9046 168.418 72.8015 168.448 72.6166C168.533 72.5621 168.615 72.5045 168.697 72.4438C175.09 67.782 180.602 48.3161 180.602 48.3161L182.378 44.9819L183.222 43.1996L181.492 58.2733L195.023 61.6076L203.674 60.9438L203.65 59.0857L210.243 58.5734L218.217 55.2301ZM132.437 11.2788L130.033 10.9272C129.611 8.75994 129.325 7.33835 129.325 7.33835C129.829 6.71633 130.275 6.04976 130.658 5.3469C131.821 7.12314 132.267 9.54803 132.437 11.2667V11.2788ZM123.458 6.62603C123.625 7.19588 123.777 7.56265 123.777 7.56265L124.08 10.0633L123.261 9.94511C123.214 8.8308 123.281 7.71464 123.461 6.61391L123.458 6.62603ZM199.282 24.0883L196.028 24.5066C196.486 23.1608 197.054 20.9541 196.723 18.9566C197.041 18.6654 197.288 18.3044 197.442 17.9021C197.597 17.4997 197.657 17.0669 197.615 16.6378C199.549 18.9445 199.367 23.0183 199.282 24.0792V24.0883ZM193.879 20.6298C194.849 20.306 195.748 19.801 196.529 19.1415C196.808 21.1027 196.225 23.2578 195.782 24.5369L192.747 24.9249L191.909 24.7643L193.879 20.6298Z" fill="url(#paint0_linear)"/>
<path d="M217.637 55.803L209.718 59.1039L200.517 27.068L202.676 24.5097L206.631 23.8974L217.637 55.803Z" fill="#E60014"/>
<path opacity="0.2" d="M217.637 55.803L209.718 59.1039L200.517 27.068L202.676 24.5097L206.631 23.8974L217.637 55.803Z" fill="white"/>
<path d="M202.675 24.5097L188.931 26.2708L195.976 60.1709L209.718 59.1039L202.675 24.5097Z" fill="#D50315"/>
<path opacity="0.07" d="M202.675 24.5097L188.931 26.2708L195.976 60.1709L209.718 59.1039L202.675 24.5097Z" fill="white"/>
<path d="M199.103 25.2735L198.884 25.2463C198.884 25.1644 199.795 17.1623 194.765 16.1529L194.808 15.9377C200.053 16.9895 199.121 25.1917 199.103 25.2735Z" fill="#535461"/>
<path d="M163.401 48.6313H148.26V70.7616H163.401V48.6313Z" fill="#774E55"/>
<path opacity="0.2" d="M163.401 48.6313H148.26V70.7616H163.401V48.6313Z" fill="black"/>
<path d="M203.222 61.4469L194.665 62.1047L195.983 28.8017L198.833 27.0497L202.782 27.7075L203.222 61.4469Z" fill="#9D010E"/>
<path opacity="0.2" d="M203.222 61.4469L194.665 62.1047L195.983 28.8017L198.833 27.0497L202.782 27.7075L203.222 61.4469Z" fill="#9D010E"/>
<path d="M198.833 27.0497L185.231 24.4187L181.282 58.8189L194.665 62.1047L198.833 27.0497Z" fill="#E60014"/>
<path d="M118.75 10.618H116.774L112.825 45.0152L121.6 44.5787L118.75 10.618Z" fill="#8B010D"/>
<path opacity="0.2" d="M118.75 10.618H116.774L112.825 45.0152L121.6 44.5787L118.75 10.618Z" fill="#E60014"/>
<path d="M118.092 10.1785L115.678 44.797L136.741 46.9885L139.154 13.246L118.092 10.1785Z" fill="#E60014"/>
<path d="M143.543 189.842C143.543 189.842 140.912 189.624 140.471 197.293C140.471 197.293 140.912 201.455 139.813 203.428C138.714 205.401 139.373 211.097 142.666 211.754C144.773 212.142 146.933 212.142 149.04 211.754C149.04 211.754 150.576 211.754 149.48 206.277L147.286 190.282L143.543 189.842Z" fill="#5C3D53"/>
<path opacity="0.05" d="M143.543 189.842C143.543 189.842 140.912 189.624 140.471 197.293C140.471 197.293 140.912 201.455 139.813 203.428C138.714 205.401 139.373 211.097 142.666 211.754C144.773 212.142 146.933 212.142 149.04 211.754C149.04 211.754 150.576 211.754 149.48 206.277L147.286 190.282L143.543 189.842Z" fill="black"/>
<path d="M157.339 63.3202C157.151 66.5817 157.803 68.4731 157.803 68.4731L152.1 70.0068C152.1 70.0068 142.666 71.3223 146.396 67.5819C147.686 66.2937 148.321 64.084 148.597 61.75C148.77 60.1558 148.824 58.5509 148.758 56.9487C148.707 55.4476 148.578 53.9502 148.369 52.4627C148.369 52.4627 162.193 47.6432 159.121 55.5302C158.561 56.9568 158.12 58.4267 157.8 59.9253C157.563 61.044 157.409 62.1787 157.339 63.3202Z" fill="#F8BDC5"/>
<path opacity="0.1" d="M159.121 55.5332C158.561 56.9598 158.12 58.4298 157.8 59.9284C156.164 60.2756 154.465 60.183 152.876 59.66C151.288 59.1371 149.867 58.2025 148.758 56.9518C148.707 55.4507 148.578 53.9532 148.369 52.4657C148.369 52.4657 162.193 47.6463 159.121 55.5332Z" fill="black"/>
<path d="M155.83 59.6949C161.041 59.6949 165.264 55.4771 165.264 50.2742C165.264 45.0713 161.041 40.8535 155.83 40.8535C150.62 40.8535 146.396 45.0713 146.396 50.2742C146.396 55.4771 150.62 59.6949 155.83 59.6949Z" fill="#F8BDC5"/>
<path d="M139.154 54.8755V57.7247L134.328 70.213L133.01 68.8974C132.938 68.8195 132.871 68.7365 132.81 68.6489C129.623 64.1265 127.304 34.0607 127.304 34.0607L124.235 8.63872C124.235 8.63872 120.945 0.757794 128.181 1.18821C135.417 1.61863 129.717 8.41744 129.717 8.41744C129.717 8.41744 134.543 32.5179 133.885 33.3939C133.226 34.2699 133.885 36.9009 133.885 36.9009C133.885 36.9009 135.861 41.9417 135.639 45.6639C135.417 49.3861 139.154 54.8755 139.154 54.8755Z" fill="#F8BDC5"/>
<path d="M193.566 21.5725L182.156 45.6729L180.402 48.9526C180.402 48.9526 174.938 68.2063 168.628 72.8166C168.265 73.0871 167.872 73.314 167.456 73.4926L166.139 62.9746L167.353 59.9192L167.444 59.6858C168.852 58.3146 169.97 56.676 170.734 54.8663C172.051 51.7988 175.782 45.6638 175.782 45.6638C175.782 45.6638 176.441 43.9118 176.441 42.5963C176.441 41.2808 188.946 19.5901 188.946 19.5901C188.946 19.5901 190.042 9.72988 195.321 14.5494C200.599 19.3688 193.566 21.5725 193.566 21.5725Z" fill="#F8BDC5"/>
<path d="M149.465 196.414C149.465 196.414 142.004 199.481 142.881 196.632C143.416 194.904 143.218 191.64 142.982 189.357C142.83 187.869 142.66 186.784 142.66 186.784L149.034 187.442C148.811 187.997 148.687 188.587 148.667 189.185C148.457 192.091 149.465 196.414 149.465 196.414Z" fill="#F8BDC5"/>
<path d="M161.067 187.89C159.916 191.879 160.217 198.827 160.217 198.827C160.217 198.827 153.414 199.703 154.073 197.951C154.531 196.738 155.202 190.73 155.566 187.199C155.727 185.656 155.827 184.586 155.827 184.586L161.971 185.902C161.553 186.505 161.246 187.179 161.067 187.89Z" fill="#F8BDC5"/>
<path opacity="0.1" d="M142.663 186.775L149.037 187.433C148.814 187.988 148.69 188.578 148.67 189.175C147.799 189.631 146.835 189.883 145.852 189.913C144.869 189.943 143.891 189.75 142.994 189.348C142.833 187.857 142.663 186.775 142.663 186.775Z" fill="black"/>
<path opacity="0.1" d="M161.974 185.899C161.553 186.503 161.245 187.177 161.063 187.89C158.99 188.224 156.814 187.639 155.566 187.199C155.727 185.656 155.827 184.586 155.827 184.586L161.974 185.899Z" fill="black"/>
<path d="M168.995 134.846L167.702 143.896C167.177 147.332 166.379 150.72 165.316 154.03C164.387 157.015 165.046 160.698 165.046 160.698C165.046 160.698 165.923 174.72 164.387 178.227C162.851 181.734 163.07 186.772 163.07 186.772C159.558 188.745 154.513 186.332 154.513 186.332L154.073 163.108C154.073 163.108 152.977 156.973 153.414 151.286C153.851 145.6 152.756 133.979 152.756 133.979C150.327 134.636 150.561 166.624 150.561 166.624V187.439C145.295 192.04 140.687 187.439 140.687 187.439C138.932 182.18 139.591 166.184 139.591 166.184L138.932 156.764C138.932 156.764 136.504 145.151 134.986 128.938C134.517 124.383 134.454 119.795 134.798 115.228C134.841 114.731 134.887 114.253 134.938 113.794C135.148 111.721 135.528 109.668 136.073 107.656C136.247 106.993 136.47 106.344 136.741 105.713L160.317 106.808L161.707 106.871L165.046 107.026C165.41 107.575 165.753 108.132 166.072 108.69C166.533 109.499 166.949 110.315 167.319 111.115C167.532 111.582 167.732 112.052 167.926 112.518C172.41 123.821 168.995 134.846 168.995 134.846Z" fill="#5E52AD"/>
<path opacity="0.1" d="M143.103 107.899C143.103 107.899 142.071 118.205 134.795 115.222C134.838 114.725 134.884 114.247 134.935 113.788C136.647 114.252 141.385 114.892 141.564 107.896L143.103 107.899Z" fill="black"/>
<path opacity="0.1" d="M167.914 112.521C162.876 114.319 160.975 109.533 160.326 106.802L161.716 106.865C162.472 111.16 165.489 111.412 167.326 111.109C167.532 111.588 167.729 112.058 167.914 112.521Z" fill="black"/>
<path d="M145.498 195.25C144.378 195.074 142.666 194.459 143.203 192.31C143.203 192.31 141.13 191.594 141.349 200.139C141.349 200.139 141.13 204.301 140.69 205.18C140.25 206.059 140.69 211.315 145.298 210.875C145.298 210.875 148.588 211.97 149.465 210.218C149.465 210.218 148.807 200.139 149.905 198.396C151.004 196.653 149.465 194.889 149.465 194.889C149.465 194.889 147.911 195.75 146.794 195.495C146.369 195.377 145.932 195.32 145.498 195.25Z" fill="#5C3D53"/>
<path d="M151.001 209.56C151.001 209.56 148.807 213.285 153.854 213.721C158.902 214.158 161.094 211.53 161.094 211.53C161.094 211.53 161.752 210.436 161.094 208.462C160.435 206.489 161.312 202.985 161.312 202.985C161.312 202.985 161.971 198.824 160.435 199.7C158.899 200.576 151.001 209.56 151.001 209.56Z" fill="#5C3D53"/>
<path opacity="0.05" d="M151.001 209.56C151.001 209.56 148.807 213.285 153.854 213.721C158.902 214.158 161.094 211.53 161.094 211.53C161.094 211.53 161.752 210.436 161.094 208.462C160.435 206.489 161.312 202.985 161.312 202.985C161.312 202.985 161.971 198.824 160.435 199.7C158.899 200.576 151.001 209.56 151.001 209.56Z" fill="black"/>
<path d="M156.708 196.196C156.708 196.196 154.076 195.101 153.417 197.29C152.759 199.478 153.199 204.959 151.881 206.492C150.564 208.026 148.81 212.188 154.076 211.97C159.342 211.751 160.45 209.996 160.45 209.996C160.45 209.996 160.232 204.519 160.89 202.985C161.549 201.452 160.89 199.045 160.89 199.045C160.89 199.045 161.094 195.962 156.708 196.196Z" fill="#5C3D53"/>
<path opacity="0.2" d="M123.795 13.6855C124.038 13.6855 124.235 13.4888 124.235 13.246C124.235 13.0033 124.038 12.8065 123.795 12.8065C123.552 12.8065 123.355 13.0033 123.355 13.246C123.355 13.4888 123.552 13.6855 123.795 13.6855Z" fill="black"/>
<path opacity="0.2" d="M133.01 14.7798C133.254 14.7798 133.451 14.583 133.451 14.3403C133.451 14.0975 133.254 13.9008 133.01 13.9008C132.767 13.9008 132.57 14.0975 132.57 14.3403C132.57 14.583 132.767 14.7798 133.01 14.7798Z" fill="black"/>
<path d="M133.12 14.3432H132.901C132.901 14.2493 133.056 5.00738 127.741 4.15563C126.694 3.98892 125.838 4.22535 125.197 4.85885C123.003 7.03217 123.91 13.1702 123.919 13.2308L123.704 13.2642C123.664 13.0065 122.772 6.95336 125.046 4.70427C125.738 4.0162 126.66 3.75856 127.777 3.93739C133.278 4.81642 133.123 14.2493 133.12 14.3432Z" fill="#535461"/>
<path d="M195.202 26.6588L195.005 26.5648C195.038 26.492 198.42 19.1779 193.952 16.6288L194.061 16.4378C198.702 19.087 195.239 26.583 195.202 26.6588Z" fill="#535461"/>
<path opacity="0.1" d="M157.803 68.4609L152.1 69.9947C152.1 69.9947 142.666 71.3102 146.396 67.5698C147.686 66.2816 148.321 64.0719 148.597 61.7379C150.087 64.0719 151.881 63.4081 151.881 63.4081L157.321 63.302H157.342C157.151 66.5816 157.803 68.4609 157.803 68.4609Z" fill="black"/>
<path opacity="0.1" d="M168.631 72.8227C168.268 73.0932 167.875 73.32 167.459 73.4987L166.142 62.9807L167.356 59.9253L167.659 59.6919C170.4 60.4709 168.986 70.5463 168.631 72.8227Z" fill="black"/>
<path opacity="0.1" d="M139.154 54.8755V57.7247L134.328 70.213L133.01 68.8974C132.938 68.8195 132.871 68.7365 132.81 68.6489C133.381 62.1381 139.154 54.8755 139.154 54.8755Z" fill="black"/>
<path opacity="0.1" d="M166.069 108.684C163 109.451 146.979 113.209 142.226 109.651C140.35 108.247 138.14 107.732 136.073 107.65C136.247 106.987 136.47 106.338 136.741 105.707L160.317 106.802L161.707 106.865L165.046 107.02C165.41 107.572 165.75 108.126 166.069 108.684Z" fill="black"/>
<path d="M124.785 3.05841C124.785 3.05841 128.075 8.53565 130.269 3.05841H124.785Z" fill="#F8BDC5"/>
<path d="M192.471 14.3402C192.471 14.3402 191.153 20.9147 196.417 17.8472L192.471 14.3402Z" fill="#F8BDC5"/>
<g opacity="0.1">
<path opacity="0.1" d="M151.736 136.14C151.63 134.806 151.551 133.973 151.551 133.973C149.122 134.63 149.356 166.618 149.356 166.618V187.432C147.814 188.778 146.321 189.336 145 189.454C146.585 189.594 148.473 189.151 150.464 187.432V166.618C150.464 166.618 150.294 143.439 151.736 136.14Z" fill="black"/>
<path opacity="0.1" d="M167.805 112.521C167.62 112.055 167.423 111.585 167.198 111.118C166.828 110.306 166.412 109.49 165.95 108.693C165.647 108.135 165.289 107.581 164.924 107.029L161.586 106.874L160.195 106.811L136.62 105.716L136.598 105.765L159.1 106.811L160.49 106.874L163.829 107.029C164.193 107.578 164.536 108.135 164.855 108.693C165.316 109.502 165.732 110.318 166.102 111.118C166.315 111.585 166.515 112.055 166.709 112.521C171.196 123.827 167.79 134.846 167.79 134.846L166.497 143.896C165.972 147.332 165.174 150.72 164.111 154.029C163.182 157.015 163.841 160.698 163.841 160.698C163.841 160.698 164.718 174.72 163.182 178.227C161.646 181.734 161.865 186.772 161.865 186.772C161.017 187.229 160.077 187.488 159.115 187.529C160.443 187.649 161.777 187.386 162.961 186.772C162.961 186.772 162.742 181.731 164.278 178.227C165.814 174.723 164.937 160.698 164.937 160.698C164.937 160.698 164.278 157.012 165.207 154.029C166.27 150.72 167.068 147.332 167.593 143.896L168.886 134.846C168.886 134.846 172.291 123.821 167.805 112.521Z" fill="black"/>
</g>
<path d="M157.321 63.7506C160.356 65.1783 167.459 59.695 167.459 59.695C170.531 60.571 168.336 73.2805 168.336 73.2805L168.218 73.8079C167.55 76.8056 167.146 79.8519 166.773 82.9012C166.491 85.2019 164.387 87.3055 164.387 87.3055C160.657 94.3164 166.582 108.12 166.582 108.12C166.582 108.12 147.492 113.161 142.229 109.214C136.966 105.268 129.064 108.338 129.064 108.338C132.795 105.053 133.01 84.6744 133.01 84.6744V68.9126C133.451 62.3381 139.385 54.8906 139.385 54.8906C141.813 61.6834 148.561 62.132 148.561 62.132C150.057 64.5569 151.9 63.8749 151.9 63.8749L157.321 63.7506Z" fill="#EB6475"/>
<path opacity="0.1" d="M153.375 36.9979C152.622 36.8344 151.842 36.8344 151.089 36.9979C148.703 37.6556 147.954 40.6595 146.111 42.3084C145.45 42.9146 144.633 43.3208 144.032 43.9785C142.964 45.1486 142.748 46.8824 142.976 48.4495C143.203 50.0165 143.81 51.5018 144.19 53.0386C144.565 54.5769 144.707 56.1625 144.612 57.7429C144.62 58.2674 144.479 58.7836 144.205 59.2312C143.765 59.8374 142.954 60.0284 142.384 60.5133C140.641 62.0107 142.08 65.1176 140.802 67.0302C140.253 67.8577 139.224 68.4033 139.015 69.3733C138.866 70.0614 139.181 70.7555 139.491 71.389C140.305 73.0561 141.148 74.7687 142.526 76.0115C143.905 77.2542 145.607 77.8786 147.301 78.5121C147.814 78.7031 148.458 78.8698 148.849 78.4909C149.332 78.0181 148.968 77.2178 148.634 76.6328C148.105 75.7235 147.693 74.6262 148.002 73.6017C148.312 72.5772 149.304 71.8982 149.972 71.0434C151.693 68.8307 151.129 65.6541 150.276 62.9867C149.915 61.8622 149.508 60.6649 149.814 59.5221C149.945 59.0311 150.203 58.5855 150.367 58.1036C151.095 55.9576 149.872 53.6024 150.23 51.3654C150.416 50.4919 150.723 49.6483 151.141 48.8587L153.068 44.7212C153.262 44.2232 153.552 43.7681 153.921 43.3814C154.52 42.9005 155.28 42.6643 156.046 42.7206C156.827 42.7381 157.597 42.9139 158.308 43.2375C159.019 43.5611 159.657 44.0256 160.183 44.603C162.247 46.8945 162.117 50.3621 161.868 53.4175L161.689 55.6241C161.558 57.2124 161.385 58.9068 160.384 60.1435C159.603 61.1014 158.344 61.7531 158.022 62.9473C157.743 63.9749 158.268 65.0903 157.992 66.1179C157.579 67.6547 155.679 68.2093 154.674 69.4521C154.251 69.9922 154.002 70.647 153.957 71.331C153.913 72.0149 154.076 72.6964 154.425 73.2865C154.808 73.8927 155.418 74.4989 155.336 75.2112C155.266 75.7841 154.75 76.2479 154.753 76.8238C154.778 77.0815 154.88 77.3257 155.046 77.5242C155.213 77.7228 155.435 77.8664 155.685 77.9362C156.187 78.0662 156.711 78.0909 157.224 78.009L162.666 77.5179C163.007 77.5166 163.341 77.4245 163.634 77.2512C164.014 76.9784 164.138 76.4752 164.19 76.0115C164.408 74.0776 163.886 71.9649 164.855 70.2735C165.158 69.731 165.604 69.2793 165.941 68.758C167.799 65.8481 165.926 61.9016 166.937 58.6007C167.417 57.0336 168.534 55.6878 168.831 54.0783C169.226 51.9322 168.106 49.8347 167.672 47.7129C167.225 45.5214 167.465 43.1086 166.293 41.202C165.398 39.7471 163.795 38.8408 162.138 38.4255C160.62 38.0436 159.103 38.18 157.585 38.0163C156.134 37.8496 154.786 37.2252 153.375 36.9979Z" fill="black"/>
<path d="M153.375 36.5584C152.622 36.3949 151.842 36.3949 151.089 36.5584C148.703 37.2161 147.954 40.22 146.111 41.8689C145.45 42.4751 144.633 42.8813 144.032 43.539C142.964 44.709 142.748 46.4429 142.976 48.0099C143.203 49.577 143.81 51.0623 144.19 52.5991C144.565 54.1374 144.707 55.723 144.612 57.3034C144.62 57.8279 144.479 58.3441 144.205 58.7916C143.765 59.3979 142.954 59.5888 142.384 60.0738C140.641 61.5712 142.08 64.6781 140.802 66.5907C140.253 67.4182 139.224 67.9638 139.015 68.9338C138.866 69.6219 139.181 70.316 139.491 70.9495C140.305 72.6166 141.148 74.3292 142.526 75.5719C143.905 76.8147 145.607 77.4391 147.301 78.0726C147.814 78.2636 148.458 78.4303 148.849 78.0514C149.332 77.5786 148.968 76.7783 148.634 76.1933C148.105 75.284 147.693 74.1867 148.002 73.1622C148.312 72.1377 149.304 71.4587 149.972 70.6039C151.693 68.3912 151.129 65.2146 150.276 62.5472C149.915 61.4227 149.508 60.2254 149.814 59.0826C149.945 58.5916 150.203 58.146 150.367 57.6641C151.095 55.518 149.872 53.1629 150.23 50.9259C150.416 50.0523 150.723 49.2088 151.141 48.4191L153.068 44.2817C153.262 43.7837 153.552 43.3286 153.921 42.9419C154.52 42.461 155.28 42.2248 156.046 42.2811C156.827 42.2986 157.597 42.4744 158.308 42.798C159.019 43.1216 159.657 43.5861 160.183 44.1634C162.247 46.455 162.117 49.9226 161.868 52.978L161.689 55.1846C161.558 56.7729 161.385 58.4673 160.384 59.704C159.603 60.6619 158.344 61.3135 158.022 62.5078C157.743 63.5354 158.268 64.6508 157.992 65.6784C157.579 67.2151 155.679 67.7698 154.674 69.0126C154.251 69.5527 154.002 70.2075 153.957 70.8914C153.913 71.5754 154.076 72.2569 154.425 72.847C154.808 73.4532 155.418 74.0594 155.336 74.7717C155.266 75.3446 154.75 75.8084 154.753 76.3843C154.778 76.642 154.88 76.8862 155.046 77.0847C155.213 77.2833 155.435 77.4269 155.685 77.4967C156.187 77.6267 156.711 77.6514 157.224 77.5695L162.666 77.0784C163.007 77.0771 163.341 76.985 163.634 76.8117C164.014 76.5389 164.138 76.0357 164.19 75.5719C164.408 73.6381 163.886 71.5254 164.855 69.834C165.158 69.2915 165.604 68.8398 165.941 68.3185C167.799 65.4086 165.926 61.4621 166.937 58.1612C167.417 56.5941 168.534 55.2483 168.831 53.6387C169.226 51.4927 168.106 49.3952 167.672 47.2734C167.225 45.0819 167.465 42.6691 166.293 40.7625C165.398 39.3076 163.795 38.4013 162.138 37.986C160.62 37.6041 159.103 37.7405 157.585 37.5768C156.134 37.4131 154.786 36.7887 153.375 36.5584Z" fill="#774E55"/>
<path opacity="0.1" d="M141.676 86.7538C141.676 86.7538 146.066 88.0693 152.428 85.22H155.715C155.715 85.22 155.934 88.2875 164.49 86.972" fill="black"/>
<path opacity="0.1" d="M99.2053 78.203H78.0609C77.1942 78.203 76.4916 78.9046 76.4916 79.7701V85.7293C76.4916 86.5948 77.1942 87.2964 78.0609 87.2964H99.2053C100.072 87.2964 100.775 86.5948 100.775 85.7293V79.7701C100.775 78.9046 100.072 78.203 99.2053 78.203Z" fill="#E60014"/>
<path opacity="0.1" d="M110.133 88.2057H88.9882C88.1215 88.2057 87.4189 88.9073 87.4189 89.7728V95.732C87.4189 96.5974 88.1215 97.2991 88.9882 97.2991H110.133C110.999 97.2991 111.702 96.5974 111.702 95.732V89.7728C111.702 88.9073 110.999 88.2057 110.133 88.2057Z" fill="#E60014"/>
<path opacity="0.1" d="M205.747 78.8092H184.603C183.736 78.8092 183.033 79.5108 183.033 80.3763V86.3355C183.033 87.201 183.736 87.9026 184.603 87.9026H205.747C206.614 87.9026 207.317 87.201 207.317 86.3355V80.3763C207.317 79.5108 206.614 78.8092 205.747 78.8092Z" fill="#E60014"/>
<path opacity="0.1" d="M216.675 88.8119H195.53C194.664 88.8119 193.961 89.5135 193.961 90.379V96.3382C193.961 97.2036 194.664 97.9053 195.53 97.9053H216.675C217.541 97.9053 218.244 97.2036 218.244 96.3382V90.379C218.244 89.5135 217.541 88.8119 216.675 88.8119Z" fill="#E60014"/>
<path opacity="0.1" d="M91.617 98.2084H70.4725C69.6058 98.2084 68.9032 98.91 68.9032 99.7755V105.735C68.9032 106.6 69.6058 107.302 70.4725 107.302H91.617C92.4837 107.302 93.1863 106.6 93.1863 105.735V99.7755C93.1863 98.91 92.4837 98.2084 91.617 98.2084Z" fill="#E60014"/>
<path opacity="0.1" d="M115.9 133.673H94.7556C93.8889 133.673 93.1863 134.374 93.1863 135.24V141.199C93.1863 142.064 93.8889 142.766 94.7556 142.766H115.9C116.767 142.766 117.469 142.064 117.469 141.199V135.24C117.469 134.374 116.767 133.673 115.9 133.673Z" fill="#E60014"/>
<path opacity="0.1" d="M126.827 143.675H105.683C104.816 143.675 104.114 144.377 104.114 145.242V151.201C104.114 152.067 104.816 152.769 105.683 152.769H126.827C127.694 152.769 128.397 152.067 128.397 151.201V145.242C128.397 144.377 127.694 143.675 126.827 143.675Z" fill="#E60014"/>
<path opacity="0.1" d="M108.312 153.678H87.1671C86.3004 153.678 85.5978 154.38 85.5978 155.245V161.204C85.5978 162.07 86.3004 162.771 87.1671 162.771H108.312C109.178 162.771 109.881 162.07 109.881 161.204V155.245C109.881 154.38 109.178 153.678 108.312 153.678Z" fill="#E60014"/>
<path opacity="0.1" d="M213.639 159.134H192.495C191.628 159.134 190.926 159.836 190.926 160.701V166.66C190.926 167.526 191.628 168.227 192.495 168.227H213.639C214.506 168.227 215.209 167.526 215.209 166.66V160.701C215.209 159.836 214.506 159.134 213.639 159.134Z" fill="#E60014"/>
<path opacity="0.1" d="M195.123 169.137H173.979C173.112 169.137 172.41 169.838 172.41 170.704V176.663C172.41 177.528 173.112 178.23 173.979 178.23H195.123C195.99 178.23 196.693 177.528 196.693 176.663V170.704C196.693 169.838 195.99 169.137 195.123 169.137Z" fill="#E60014"/>
<g opacity="0.1">
<path opacity="0.1" d="M286.922 201.082C286.922 201.082 282.527 178.845 291.579 163.605C295.415 157.237 297.08 149.798 296.323 142.405C295.933 138.898 295.222 135.434 294.198 132.057" stroke="#535461" stroke-width="2" stroke-miterlimit="10"/>
<path opacity="0.1" d="M299.85 122.418C299.607 125.07 294.083 132.324 294.083 132.324C294.083 132.324 289.979 124.188 290.225 121.533C290.366 120.278 290.995 119.129 291.975 118.331C292.955 117.534 294.21 117.152 295.469 117.267C296.728 117.383 297.892 117.986 298.71 118.949C299.529 119.911 299.937 121.155 299.847 122.415L299.85 122.418Z" fill="#6C63FF"/>
<path opacity="0.1" d="M306.452 137.846C304.804 139.941 296.223 143.036 296.223 143.036C296.223 143.036 297.206 133.979 298.855 131.884C299.235 131.356 299.719 130.909 300.278 130.572C300.836 130.236 301.456 130.015 302.102 129.924C302.748 129.833 303.405 129.873 304.035 130.043C304.664 130.212 305.253 130.507 305.766 130.91C306.278 131.312 306.704 131.814 307.017 132.386C307.33 132.957 307.524 133.585 307.587 134.234C307.65 134.882 307.582 135.536 307.385 136.157C307.188 136.778 306.868 137.352 306.443 137.846H306.452Z" fill="#6C63FF"/>
<path opacity="0.1" d="M303.793 162.923C301.31 163.899 292.341 162.244 292.341 162.244C292.341 162.244 297.768 154.921 300.251 153.945C301.438 153.499 302.753 153.537 303.913 154.052C305.072 154.566 305.982 155.514 306.447 156.693C306.912 157.871 306.894 159.185 306.398 160.351C305.901 161.516 304.966 162.44 303.793 162.923Z" fill="#6C63FF"/>
<path opacity="0.1" d="M297.501 181.458C295.218 182.84 286.097 182.722 286.097 182.722C286.097 182.722 290.207 174.59 292.489 173.207C293.032 172.866 293.638 172.637 294.27 172.531C294.903 172.426 295.55 172.448 296.174 172.595C296.798 172.742 297.387 173.012 297.906 173.389C298.424 173.765 298.863 174.241 299.195 174.789C299.528 175.337 299.748 175.945 299.843 176.578C299.938 177.211 299.905 177.857 299.747 178.478C299.59 179.099 299.31 179.682 298.924 180.194C298.538 180.705 298.055 181.135 297.501 181.458Z" fill="#6C63FF"/>
<path opacity="0.1" d="M286.073 142.614C287.809 144.639 296.511 147.367 296.511 147.367C296.511 147.367 295.145 138.359 293.412 136.337C293.003 135.845 292.499 135.44 291.931 135.144C291.364 134.848 290.742 134.668 290.104 134.615C289.466 134.561 288.824 134.634 288.214 134.83C287.605 135.027 287.04 135.342 286.554 135.758C286.067 136.174 285.669 136.682 285.381 137.254C285.093 137.825 284.922 138.448 284.877 139.086C284.832 139.724 284.915 140.364 285.12 140.97C285.325 141.576 285.649 142.135 286.073 142.614Z" fill="#6C63FF"/>
<path opacity="0.1" d="M278.988 164.384C281.249 165.796 290.374 165.799 290.374 165.799C290.374 165.799 286.373 157.615 284.109 156.2C283.571 155.854 282.969 155.618 282.339 155.506C281.708 155.394 281.062 155.408 280.437 155.548C279.813 155.687 279.222 155.95 278.7 156.319C278.177 156.688 277.734 157.158 277.394 157.7C277.055 158.242 276.827 158.846 276.724 159.477C276.62 160.108 276.643 160.753 276.792 161.375C276.94 161.997 277.21 162.583 277.587 163.099C277.965 163.616 278.441 164.053 278.988 164.384Z" fill="#6C63FF"/>
<path opacity="0.1" d="M275.006 186.478C276.997 188.251 285.988 189.797 285.988 189.797C285.988 189.797 283.429 181.052 281.435 179.279C280.966 178.832 280.411 178.484 279.805 178.256C279.198 178.027 278.552 177.923 277.904 177.949C277.257 177.976 276.621 178.132 276.035 178.408C275.449 178.685 274.925 179.076 274.493 179.559C274.062 180.042 273.732 180.607 273.524 181.22C273.315 181.833 273.233 182.482 273.281 183.127C273.328 183.773 273.506 184.402 273.802 184.977C274.098 185.553 274.508 186.063 275.006 186.478Z" fill="#6C63FF"/>
</g>
<g opacity="0.1">
<path opacity="0.1" d="M248.789 196.202C248.789 196.202 246.43 184.262 251.287 176.078C253.347 172.658 254.241 168.663 253.834 164.693C253.626 162.81 253.246 160.95 252.699 159.137" stroke="#535461" stroke-width="2" stroke-miterlimit="10"/>
<path opacity="0.1" d="M255.731 153.96C255.6 155.384 252.635 159.279 252.635 159.279C252.635 159.279 250.431 154.912 250.562 153.487C250.66 152.833 251.005 152.241 251.527 151.833C252.048 151.425 252.706 151.231 253.365 151.292C254.025 151.352 254.636 151.662 255.074 152.158C255.512 152.654 255.744 153.299 255.722 153.96H255.731Z" fill="#6C63FF"/>
<path opacity="0.1" d="M259.273 162.244C258.387 163.368 253.779 165.029 253.779 165.029C253.779 165.029 254.307 160.18 255.194 159.043C255.626 158.526 256.244 158.197 256.915 158.127C257.586 158.057 258.258 158.25 258.789 158.667C259.319 159.083 259.667 159.689 259.757 160.357C259.848 161.025 259.674 161.702 259.273 162.244Z" fill="#6C63FF"/>
<path opacity="0.1" d="M257.847 175.714C256.514 176.239 251.697 175.35 251.697 175.35C251.697 175.35 254.611 171.41 255.946 170.895C256.581 170.667 257.279 170.696 257.894 170.974C258.508 171.252 258.989 171.757 259.237 172.383C259.484 173.01 259.478 173.708 259.219 174.329C258.96 174.951 258.469 175.448 257.85 175.714H257.847Z" fill="#6C63FF"/>
<path opacity="0.1" d="M254.468 185.656C253.254 186.399 248.346 186.335 248.346 186.335C248.346 186.335 250.553 181.967 251.779 181.225C252.07 181.039 252.396 180.913 252.737 180.854C253.078 180.796 253.428 180.806 253.765 180.884C254.102 180.963 254.42 181.107 254.7 181.31C254.98 181.513 255.217 181.77 255.396 182.065C255.575 182.361 255.694 182.689 255.744 183.031C255.794 183.373 255.776 183.721 255.689 184.056C255.603 184.39 255.45 184.704 255.241 184.979C255.031 185.254 254.768 185.484 254.468 185.656Z" fill="#6C63FF"/>
<path opacity="0.1" d="M248.331 164.808C249.263 165.896 253.937 167.36 253.937 167.36C253.937 167.36 253.206 162.511 252.274 161.438C251.826 160.915 251.189 160.591 250.502 160.538C249.816 160.485 249.136 160.706 248.613 161.153C248.09 161.6 247.766 162.236 247.712 162.921C247.659 163.607 247.88 164.286 248.328 164.808H248.331Z" fill="#6C63FF"/>
<path opacity="0.1" d="M244.527 176.493C245.741 177.251 250.641 177.254 250.641 177.254C250.641 177.254 248.492 172.859 247.277 172.101C246.694 171.75 245.996 171.642 245.334 171.8C244.671 171.959 244.098 172.371 243.737 172.948C243.376 173.524 243.257 174.22 243.405 174.883C243.552 175.547 243.956 176.127 244.527 176.496V176.493Z" fill="#6C63FF"/>
<path opacity="0.1" d="M242.393 188.357C243.462 189.309 248.291 190.139 248.291 190.139C248.291 190.139 246.919 185.444 245.863 184.492C245.347 184.049 244.678 183.825 243.999 183.87C243.32 183.915 242.685 184.224 242.232 184.731C241.78 185.238 241.544 185.903 241.577 186.582C241.61 187.26 241.909 187.899 242.409 188.36L242.393 188.357Z" fill="#6C63FF"/>
</g>
<g opacity="0.1">
<path opacity="0.1" d="M56.6493 198.02C56.6493 198.02 54.2908 186.081 59.1474 177.897C61.2076 174.477 62.1012 170.482 61.6941 166.512C61.4864 164.629 61.1064 162.769 60.5589 160.956" stroke="#535461" stroke-width="2" stroke-miterlimit="10"/>
<path opacity="0.1" d="M63.5912 155.779C63.4607 157.203 60.4951 161.098 60.4951 161.098C60.4951 161.098 58.2914 156.73 58.422 155.306C58.5205 154.652 58.8657 154.06 59.3869 153.652C59.9082 153.244 60.5659 153.05 61.2255 153.11C61.8851 153.171 62.4965 153.481 62.9347 153.977C63.3728 154.473 63.6044 155.117 63.5821 155.779H63.5912Z" fill="#6C63FF"/>
<path opacity="0.1" d="M67.1336 164.063C66.2472 165.187 61.6395 166.848 61.6395 166.848C61.6395 166.848 62.1677 161.998 63.054 160.862C63.4867 160.345 64.104 160.016 64.7752 159.946C65.4463 159.876 66.1185 160.069 66.6491 160.485C67.1797 160.902 67.5271 161.508 67.6176 162.176C67.708 162.844 67.5344 163.52 67.1336 164.063Z" fill="#6C63FF"/>
<path opacity="0.1" d="M65.7069 177.533C64.3744 178.057 59.5573 177.169 59.5573 177.169C59.5573 177.169 62.4712 173.229 63.8068 172.713C64.4414 172.486 65.1398 172.514 65.7539 172.792C66.368 173.07 66.8497 173.576 67.097 174.202C67.3444 174.829 67.3379 175.526 67.079 176.148C66.8201 176.77 66.3291 177.266 65.71 177.533H65.7069Z" fill="#6C63FF"/>
<path opacity="0.1" d="M62.3285 187.475C61.1144 188.218 56.2062 188.154 56.2062 188.154C56.2062 188.154 58.4129 183.786 59.6392 183.043C59.9308 182.857 60.2566 182.731 60.5977 182.673C60.9387 182.615 61.288 182.625 61.625 182.703C61.962 182.781 62.2799 182.926 62.5601 183.129C62.8402 183.332 63.0769 183.589 63.2562 183.884C63.4356 184.18 63.5539 184.508 63.6043 184.85C63.6547 185.192 63.6362 185.54 63.5497 185.875C63.4633 186.209 63.3107 186.523 63.101 186.798C62.8913 187.073 62.6286 187.303 62.3285 187.475Z" fill="#6C63FF"/>
<path opacity="0.1" d="M56.191 166.627C57.1228 167.715 61.7973 169.179 61.7973 169.179C61.7973 169.179 61.0658 164.329 60.1339 163.256C59.6863 162.734 59.0492 162.41 58.3627 162.357C57.6762 162.303 56.9965 162.524 56.4732 162.971C55.95 163.418 55.6259 164.055 55.5724 164.74C55.5189 165.426 55.7403 166.104 56.1879 166.627H56.191Z" fill="#6C63FF"/>
<path opacity="0.1" d="M52.3877 178.312C53.6018 179.07 58.5009 179.073 58.5009 179.073C58.5009 179.073 56.3519 174.678 55.1377 173.92C54.5544 173.569 53.8563 173.461 53.194 173.619C52.5316 173.778 51.9582 174.19 51.5973 174.766C51.2364 175.343 51.1171 176.038 51.2649 176.702C51.4128 177.366 51.816 177.945 52.3877 178.315V178.312Z" fill="#6C63FF"/>
<path opacity="0.1" d="M50.2538 190.176C51.3222 191.127 56.1515 191.958 56.1515 191.958C56.1515 191.958 54.7795 187.263 53.7232 186.311C53.2076 185.868 52.5381 185.644 51.8591 185.689C51.1801 185.734 50.5458 186.043 50.0928 186.55C49.6399 187.057 49.4046 187.722 49.4375 188.4C49.4704 189.079 49.769 189.718 50.269 190.179L50.2538 190.176Z" fill="#6C63FF"/>
</g>
</g>
<defs>
<linearGradient id="paint0_linear" x1="165.231" y1="214.949" x2="165.231" y2="-2.822e-06" gradientUnits="userSpaceOnUse">
<stop stop-color="#808080" stop-opacity="0.25"/>
<stop offset="0.54" stop-color="#808080" stop-opacity="0.12"/>
<stop offset="1" stop-color="#808080" stop-opacity="0.1"/>
</linearGradient>
<clipPath id="clip0">
<rect width="326" height="224" fill="white"/>
</clipPath>
</defs>
</svg>
