<svg width="7" height="7" viewBox="0 0 7 7" fill="none" xmlns="http://www.w3.org/2000/svg">
<path fill-rule="evenodd" clip-rule="evenodd" d="M6.75781 0.247309C6.55613 0.0456337 6.23035 0.0456337 6.02867 0.247309L3.49997 2.77084L0.971272 0.242138C0.769597 0.0404625 0.443813 0.0404625 0.242138 0.242138C0.0404625 0.443813 0.0404625 0.769597 0.242138 0.971272L2.77084 3.49997L0.242138 6.02867C0.0404625 6.23035 0.0404625 6.55613 0.242138 6.75781C0.443813 6.95948 0.769597 6.95948 0.971272 6.75781L3.49997 4.22911L6.02867 6.75781C6.23035 6.95948 6.55613 6.95948 6.75781 6.75781C6.95948 6.55613 6.95948 6.23035 6.75781 6.02867L4.22911 3.49997L6.75781 0.971272C6.95431 0.774768 6.95431 0.443813 6.75781 0.247309Z" fill="#8A8A8A"/>
</svg>
