<svg width="21" height="16" viewBox="0 0 21 16" fill="none" xmlns="http://www.w3.org/2000/svg">
<path d="M19.8281 5.62504H17.1255L12.2306 0.186262C12.0228 -0.0446447 11.6672 -0.0633829 11.4362 0.144461C11.2053 0.352305 11.1866 0.707945 11.3944 0.938851L15.612 5.62504H4.63799L8.85561 0.938816C9.06346 0.707945 9.04472 0.352234 8.81381 0.144426C8.58287 -0.0634182 8.2272 -0.044715 8.01942 0.186226L3.12451 5.62504H0.421875C0.188895 5.62504 0 5.81393 0 6.04691V6.32816C0 6.56114 0.188895 6.75004 0.421875 6.75004H0.999984L2.04785 14.2947C2.16373 15.129 2.87705 15.75 3.71932 15.75H16.5307C17.373 15.75 18.0863 15.129 18.2021 14.2947L19.25 6.75004H19.8281C20.0611 6.75004 20.25 6.56114 20.25 6.32816V6.04691C20.25 5.81393 20.0611 5.62504 19.8281 5.62504ZM17.0878 14.1399C17.0494 14.4165 16.8099 14.625 16.5307 14.625H3.71932C3.44011 14.625 3.20059 14.4165 3.16216 14.1399L2.13581 6.75004H18.1142L17.0878 14.1399V14.1399ZM10.6875 8.71879V12.6563C10.6875 12.967 10.4357 13.2188 10.125 13.2188C9.81436 13.2188 9.5625 12.967 9.5625 12.6563V8.71879C9.5625 8.40811 9.81436 8.15629 10.125 8.15629C10.4357 8.15629 10.6875 8.40811 10.6875 8.71879ZM14.625 8.71879V12.6563C14.625 12.967 14.3732 13.2188 14.0625 13.2188C13.7518 13.2188 13.5 12.967 13.5 12.6563V8.71879C13.5 8.40811 13.7518 8.15629 14.0625 8.15629C14.3732 8.15629 14.625 8.40811 14.625 8.71879ZM6.75 8.71879V12.6563C6.75 12.967 6.49814 13.2188 6.1875 13.2188C5.87686 13.2188 5.625 12.967 5.625 12.6563V8.71879C5.625 8.40811 5.87686 8.15629 6.1875 8.15629C6.49814 8.15629 6.75 8.40811 6.75 8.71879Z" fill="white"/>
</svg>
