<svg width="20" height="18" viewBox="0 0 20 18" fill="none" xmlns="http://www.w3.org/2000/svg">
<path d="M18.566 6.02926L13.4297 5.28043L11.134 0.625739C10.7227 -0.203949 9.53087 -0.214496 9.11603 0.625739L6.82033 5.28043L1.684 6.02926C0.762907 6.16285 0.393767 7.2984 1.06174 7.94879L4.77775 11.5699L3.89884 16.6851C3.74064 17.6097 4.71447 18.3023 5.53009 17.8699L10.125 15.4547L14.7199 17.8699C15.5356 18.2988 16.5094 17.6097 16.3512 16.6851L15.4723 11.5699L19.1883 7.94879C19.8563 7.2984 19.4871 6.16285 18.566 6.02926V6.02926ZM14.2664 11.1761L15.2438 16.8715L10.125 14.1855L5.00978 16.875L5.98713 11.1797L1.84572 7.1402L7.56564 6.31051L10.125 1.12496L12.6844 6.31051L18.4043 7.1402L14.2664 11.1761Z" fill="white"/>
</svg>
